<svg version="1.1" id="Layer_1" xmlns:x="ns_extend;" xmlns:i="ns_ai;" xmlns:graph="ns_graphs;" xmlns="http://www.w3.org/2000/svg" xmlns:xlink="http://www.w3.org/1999/xlink" x="0px" y="0px" viewBox="0 0 93.9 59.4" style="enable-background:new 0 0 93.9 59.4;" xml:space="preserve">
 <style type="text/css">
  .st0{fill:#C74634;}
 </style>
 <metadata>
  <sfw xmlns="ns_sfw;">
   <slices>
   </slices>
   <sliceSourceBounds bottomLeftOrigin="true" height="59.4" width="93.9" x="-30.4" y="-230.4">
   </sliceSourceBounds>
  </sfw>
 </metadata>
 <path class="st0" d="M30.5,59.4H65c16.4-0.4,29.3-14.1,28.9-30.4C93.5,13.1,80.7,0.4,65,0H30.5C14.1-0.4,0.4,12.5,0,28.9
	s12.5,30,28.9,30.4C29.4,59.4,29.9,59.4,30.5,59.4 M64.2,48.9h-33c-10.6-0.3-18.9-9.2-18.6-19.8C13,19,21.1,10.8,31.2,10.5h33
	c10.6-0.3,19.5,8,19.8,18.6c0.3,10.6-8,19.5-18.6,19.8C65,48.9,64.6,48.9,64.2,48.9">
 </path>
</svg>